# xmcd
#
# Track frame offsets:
#	150
#	13714
#	22422
#	32861
#	47113
#	63162
#	76243
#	93474
#	111450
#	128949
#
# Disc length: 1883 seconds
#
# Revision: 0
# Processed by: cddbd v1.5.2PL0 Copyright (c) Steve Scherf et al.
# Submitted via: EasyCDDAExtractor 10.2.0.1
#
DISCID=8707590a
DTITLE=Various Artist - Sonrise Christian Voices
DYEAR=2002
DGENRE=Gospel
TTITLE0=Reggie Sadler Family - City Not Made By Hands
TTITLE1=Pure Harmony - Gonna Be Moving
TTITLE2=Southern Heritage - I Know My God Can Do It
TTITLE3=Tim and Mary Lovelace - Jesus Joy
TTITLE4=Rejoice - Just Beyond The River Jordan
TTITLE5=David Patillo - Not The Great I Am
TTITLE6=The Hoppers - She Cries
TTITLE7=The Tally Trio - The Healer
TTITLE8=Testify - The Sweet Forever
TTITLE9=Safely Anchored - When We Sing Around The House
EXTD=
EXTT0=
EXTT1=
EXTT2=
EXTT3=
EXTT4=
EXTT5=
EXTT6=
EXTT7=
EXTT8=
EXTT9=
PLAYORDER=
